# xmcd CD database file
#
# Track frame offsets:
#	150
#	80517
#	132964
#	234863
#
# Disc length: 3513 seconds
#
# Revision: 0
# Processed by: cddbd v1.5.1PL0 Copyright (c) Steve Scherf et al.
# Submitted via: CDex 1.51
#
DISCID=260db704
DTITLE=Duke Ellington - The Age Of Ellington [CD3]
DYEAR=1974
DGENRE=Jazz
TTITLE0=Black, Brown And Beige
TTITLE1=The Perfume Suite
TTITLE2=The Far East Suite
TTITLE3=David Danced Between The Lord With All His Might
EXTD=YEAR: 1974
EXTT0=
EXTT1=
EXTT2=
EXTT3=
PLAYORDER=
